<?xml version='1.0' encoding='utf-8'?>
<svg xmlns="http://www.w3.org/2000/svg" width="1920" height="1080" viewBox="0 0 1920 1080" data-theme="dark" data-semantic-intent="uncertain_compare" data-relation-type="hypothesis_comparison" data-site-visual-identity="heritage-amber">
  <style>
        @font-face {
            font-family: 'Inter';
            src: url('assets/fonts/Inter-Regular.ttf') format('truetype');
            font-weight: 400;
            font-style: normal;
            font-display: swap;
        }
        @font-face {
            font-family: 'Inter';
            src: url('assets/fonts/Inter-Bold.ttf') format('truetype');
            font-weight: 600;
            font-style: normal;
            font-display: swap;
        }
        @font-face {
            font-family: 'Inter';
            src: url('assets/fonts/Inter-Bold.ttf') format('truetype');
            font-weight: 800;
            font-style: normal;
            font-display: swap;
        }
        
:root {
    --background: #0f172a;
    --panel: #1e293b;
    --primary-text: #f1f5f9;
    --muted-text: #94a3b8;
    --inverse-text: #0f172a;
    --border: #334155;
    --shadow-color: #000000;
    --icon-pad-bg: #1e293b;
    --art-glow: #7dd3fc;
    --art-glow-opacity: 0.18;
    --art-sheen: #ffffff;
    --art-sheen-opacity: 0.18;
    --art-shadow: #000000;
    --art-shadow-opacity: 0.28;
    --art-muted-line: #64748b;
    --art-panel-tint: #1e293b;
    --semantic-risk: #f87171;
    --semantic-warning: #fb923c;
    --semantic-uncertain: #fbbf24;
    --semantic-evidence: #60a5fa;
    --semantic-claim: #c084fc;
    --semantic-positive: #4ade80;
    --semantic-outcome: #22d3ee;
    --font-family: 'Inter', 'Segoe UI', 'Kalam', Roboto, Helvetica, Arial, sans-serif;
    --radius-xl: 16px;
    --font-family-headline: 'Segoe UI Variable Display', 'Aptos Display', 'Inter', 'Segoe UI', Helvetica, Arial, sans-serif;
    --font-family-body: 'Segoe UI Variable Text', 'Aptos', 'Inter', 'Segoe UI', Helvetica, Arial, sans-serif;
    --font-heading: var(--font-family-headline);
    --font-body: var(--font-family-body);
    --font-size-h1: 64px;
    --font-size-h2: 42px;
    --font-size-h3: 29px;
    --font-size-body: 21px;
    --font-size-caption: 17px;
    --secondary-text: var(--muted-text);
    --panel-border: var(--border);
    --font-weight-normal: 400;
    --font-weight-medium: 500;
    --font-weight-semibold: 600;
    --font-weight-bold: 700;
    --spacing-gutter-pct: 0.07;
    --spacing-top-pct: 0.15;
    --spacing-bottom-pct: 0.07;
    --spacing-title-y-pct: 0.055;
    --accent-1: #fbbf24;
    --accent-2: #fb923c;
    --accent-3: #f59e0b;
    --accent-4: #fca5a5;
    --accent-5: #d6a66f;
    --accent-6: #7dd3fc;
}
:root[data-theme="dark"] {
    --background: #0f172a;
    --panel: #1e293b;
    --primary-text: #f1f5f9;
    --muted-text: #94a3b8;
    --inverse-text: #0f172a;
    --border: #334155;
    --shadow-color: #000000;
    --icon-pad-bg: #1e293b;
    --art-glow: #7dd3fc;
    --art-glow-opacity: 0.18;
    --art-sheen: #ffffff;
    --art-sheen-opacity: 0.18;
    --art-shadow: #000000;
    --art-shadow-opacity: 0.28;
    --art-muted-line: #64748b;
    --art-panel-tint: #1e293b;
    --semantic-risk: #f87171;
    --semantic-warning: #fb923c;
    --semantic-uncertain: #fbbf24;
    --semantic-evidence: #60a5fa;
    --semantic-claim: #c084fc;
    --semantic-positive: #4ade80;
    --semantic-outcome: #22d3ee;
    --accent-1: #fbbf24;
    --accent-2: #fb923c;
    --accent-3: #f59e0b;
    --accent-4: #fca5a5;
    --accent-5: #d6a66f;
    --accent-6: #7dd3fc;
}
:root[data-theme="light"] {
    --background: #f8fafc;
    --panel: #ffffff;
    --primary-text: #0f172a;
    --muted-text: #64748b;
    --inverse-text: #ffffff;
    --border: #e2e8f0;
    --shadow-color: #000000;
    --icon-pad-bg: #1e293b;
    --art-glow: #0891b2;
    --art-glow-opacity: 0.10;
    --art-sheen: #ffffff;
    --art-sheen-opacity: 0.34;
    --art-shadow: #0f172a;
    --art-shadow-opacity: 0.14;
    --art-muted-line: #94a3b8;
    --art-panel-tint: #f1f5f9;
    --semantic-risk: #b91c1c;
    --semantic-warning: #c2410c;
    --semantic-uncertain: #a16207;
    --semantic-evidence: #1d4ed8;
    --semantic-claim: #6d28d9;
    --semantic-positive: #15803d;
    --semantic-outcome: #0e7490;
    --accent-1: #a16207;
    --accent-2: #c2410c;
    --accent-3: #b45309;
    --accent-4: #b91c1c;
    --accent-5: #92400e;
    --accent-6: #0369a1;
}</style>
  <rect x="0" y="0" width="1.92E+3" height="1.08E+3" fill="#0f172a" stroke="none" id="programmatic_background"/>
  <line id="HEADER_DECOR" x1="960.0" x2="1080.0" y1="135.0" y2="135.0" stroke="var(--accent-1)" stroke-width="6" stroke-linecap="round"/>
  <defs>
    <pattern id="svg36d1c25c-napkin-hatch" patternUnits="userSpaceOnUse" width="12" height="12">
      <path d="M -3 12 L 12 -3 M 0 15 L 15 0" fill="none" stroke="var(--primary-text)" stroke-width="1" stroke-opacity="0.05"/>
    </pattern>
    <filter id="svg36d1c25c-shadow" x="-30%" y="-30%" width="160%" height="160%">
      <feDropShadow dx="0" dy="3" stdDeviation="4" flood-color="#000000" flood-opacity="0.10"/>
      <feDropShadow dx="0" dy="10" stdDeviation="16" flood-color="#000000" flood-opacity="0.12"/>
    </filter>
    <radialGradient id="svg36d1c25c-universal-edge-vignette" cx="50%" cy="50%" r="72%">
      <stop offset="0%" stop-color="var(--background)" stop-opacity="0"/>
      <stop offset="72%" stop-color="var(--background)" stop-opacity="0.12"/>
      <stop offset="100%" stop-color="var(--primary-text)" stop-opacity="0.08"/>
    </radialGradient>
    <linearGradient id="svg36d1c25c-universal-surface-sheen" x1="0%" y1="0%" x2="100%" y2="100%">
      <stop offset="0%" stop-color="var(--art-sheen)" stop-opacity="var(--art-sheen-opacity)"/>
      <stop offset="46%" stop-color="var(--art-sheen)" stop-opacity="0.035"/>
      <stop offset="100%" stop-color="var(--art-panel-tint)" stop-opacity="0.14"/>
    </linearGradient>
    <radialGradient id="svg36d1c25c-universal-icon-aura" cx="50%" cy="42%" r="64%">
      <stop offset="0%" stop-color="var(--art-glow)" stop-opacity="var(--art-glow-opacity)"/>
      <stop offset="100%" stop-color="var(--background)" stop-opacity="0"/>
    </radialGradient>
    <filter id="svg36d1c25c-text-glow" x="-20%" y="-20%" width="140%" height="140%">
      <feDropShadow dx="0" dy="0" stdDeviation="2" flood-color="#000000" flood-opacity="0.4"/>
    </filter>
    <marker id="svg36d1c25c-arrowhead" markerWidth="10" markerHeight="7" refX="9" refY="3.5" orient="auto" markerUnits="strokeWidth">
      <polygon points="0 0, 10 3.5, 0 7" fill="var(--muted-text)" opacity="0.6"/>
    </marker>
  </defs>
  <rect id="CANVAS_BG" width="100%" height="100%" fill="var(--background)"/>
  <rect width="100%" height="100%" fill="url(#svg36d1c25c-napkin-hatch)"/>
  <rect id="UNIVERSAL_EDGE_VIGNETTE" width="100%" height="100%" fill="url(#svg36d1c25c-universal-edge-vignette)" opacity="0.62"/>
  <text id="TITLE" x="960.0" y="59" text-anchor="middle" font-weight="800" font-size="56" fill="#f1f5f9" style="font-size: 69px; font-family: 'Segoe UI Variable Display', 'Aptos Display', 'Inter', 'Segoe UI', Helvetica, Arial, sans-serif; font-weight: 800; font-kerning: normal; font-feature-settings: &quot;kern&quot; 1, &quot;liga&quot; 1; letter-spacing:-1.2px;" data-final-font-size="69">
    <tspan x="960.0" dy="70.47px">Interpretations of the MJ-12 Memorandum</tspan>
  </text>
  <rect id="TITLE_FRAME" x="134" y="59" width="1652" height="103" fill="none"/>
  <g id="FIELD">
    <rect x="190" y="248" width="660" height="300" rx="34" fill="var(--accent-1)" fill-opacity="0.08" stroke="var(--accent-1)" stroke-width="2" stroke-opacity="0.22"/>
    <rect x="1070" y="248" width="660" height="300" rx="34" fill="var(--accent-2)" fill-opacity="0.08" stroke="var(--accent-2)" stroke-width="2" stroke-opacity="0.22"/>
    <rect x="190" y="648" width="660" height="300" rx="34" fill="var(--accent-3)" fill-opacity="0.08" stroke="var(--accent-3)" stroke-width="2" stroke-opacity="0.18"/>
    <rect x="1070" y="648" width="660" height="300" rx="34" fill="var(--accent-4)" fill-opacity="0.08" stroke="var(--accent-4)" stroke-width="2" stroke-opacity="0.18"/>
    <line x1="960" y1="228" x2="960" y2="972" stroke="var(--primary-text)" stroke-width="11" stroke-opacity="0.20"/>
    <line x1="176" y1="600" x2="1744" y2="600" stroke="var(--primary-text)" stroke-width="11" stroke-opacity="0.20"/>
    <path d="M 960 534 L 1026 600 L 960 666 L 894 600 Z" fill="var(--panel)" fill-opacity="0.94" stroke="var(--primary-text)" stroke-width="4" stroke-opacity="0.28"/>
    <circle cx="960" cy="600" r="44" fill="var(--background)" stroke="var(--primary-text)" stroke-width="4"/>
    <g transform="translate(520, 392)">
      <rect id="ITEM_1_BG" x="-310" y="-126" width="620" height="252" rx="32" fill="var(--panel)" fill-opacity="0.95" stroke="var(--accent-1)" stroke-width="3" filter="url(#svg36d1c25c-shadow)"/>
      <rect x="-310" y="-126" width="620" height="252" rx="18" fill="url(#svg36d1c25c-universal-surface-sheen)" opacity="0.84"/>
      <rect x="254" y="-92" width="18" height="184" rx="9" fill="var(--accent-1)" fill-opacity="0.22"/>
      <circle cx="224" cy="-24" r="90" fill="none" stroke="var(--accent-1)" stroke-width="2.5" stroke-opacity="0.14"/>
      <text id="ITEM_1_HEAD" x="-244.0" y="-96.0" text-anchor="start" font-weight="700" font-size="34" fill="var(--semantic-uncertain)" data-bg-id="ITEM_1_BG" fill-opacity="1.0" stroke="none" style="font-size: 31px; font-family: 'Segoe UI Variable Display', 'Aptos Display', 'Inter', 'Segoe UI', Helvetica, Arial, sans-serif; font-weight: 700; font-kerning: normal; font-feature-settings: &quot;kern&quot; 1, &quot;liga&quot; 1; letter-spacing:-0.4px;" data-final-font-size="31">
        <tspan x="-244.0" dy="28.52px">Direct Authorization</tspan>
      </text>
      <rect id="ITEM_1_HEAD_FRAME" x="-244" y="-96" width="400" height="40" fill="none"/>
      <text id="ITEM_1_BODY" x="-244.0" y="-4.0" text-anchor="start" font-size="24" fill="var(--primary-text)" opacity="0.92" data-bg-id="ITEM_1_BG" style="font-size: 23px; font-family: 'Segoe UI Variable Text', 'Aptos', 'Inter', 'Segoe UI', Helvetica, Arial, sans-serif; font-weight: 400; font-kerning: normal; font-feature-settings: &quot;kern&quot; 1, &quot;liga&quot; 1;" data-final-font-size="23">
        <tspan x="-244.0" dy="33.42px">Memo followed 11:30 meeting to authorize</tspan>
        <tspan x="-244.0" dy="26.45px">secret undertaking</tspan>
      </text>
      <rect id="ITEM_1_BODY_FRAME" x="-244" y="-4" width="430" height="128" fill="none"/>
      <circle id="ITEM_1_PAD" cx="224" cy="-24" r="52" fill="var(--icon-pad-bg)" opacity="1" fill-opacity="0.9" stroke-width="2" stroke="var(--semantic-uncertain)" stroke-opacity="0.72" data-badge-layer="pad"/>
      <circle id="ITEM_1_PAD_INNER" cx="224" cy="-24" r="40.56" fill="var(--semantic-uncertain)" fill-opacity="0.12" stroke="none" data-badge-layer="tint"/>
      <circle cx="224" cy="-24" r="42" fill="none" stroke="var(--accent-1)" stroke-width="2.5" stroke-dasharray="6 4" display="none" data-suppressed-decoration="redundant-badge-ring"/>
      <g id="ITEM_1_ICON" transform="translate(182, -66)" data-icon-size="84" stroke-linecap="round" stroke-linejoin="round" data-badge-treatment="clean">
        <g transform="translate(-5.57522123893805,-3.7168141592920354) scale(3.9646017699115044)" vector-effect="non-scaling-stroke" stroke-width="2.72" stroke-linecap="round" stroke-linejoin="round" stroke-opacity="1.0">
          <path d="m21 17-2.156-1.868A.5.5 0 0 0 18 15.5v.5a1 1 0 0 1-1 1h-2a1 1 0 0 1-1-1c0-2.545-3.991-3.97-8.5-4a1 1 0 0 0 0 5c4.153 0 4.745-11.295 5.708-13.5a2.5 2.5 0 1 1 3.31 3.284" vector-effect="non-scaling-stroke" fill="none" stroke="#f1f5f9"/>
          <path d="M3 21h18" vector-effect="non-scaling-stroke" fill="none" stroke="#f1f5f9"/>
        </g>
      </g>
    </g>
    <g transform="translate(1400, 392)">
      <rect id="ITEM_2_BG" x="-310" y="-126" width="620" height="252" rx="32" fill="var(--panel)" fill-opacity="0.95" stroke="var(--accent-2)" stroke-width="3" filter="url(#svg36d1c25c-shadow)"/>
      <rect x="-310" y="-126" width="620" height="252" rx="18" fill="url(#svg36d1c25c-universal-surface-sheen)" opacity="0.84"/>
      <rect x="-272" y="-92" width="18" height="184" rx="9" fill="var(--accent-2)" fill-opacity="0.22"/>
      <circle cx="-224" cy="-24" r="90" fill="none" stroke="var(--accent-2)" stroke-width="2.5" stroke-opacity="0.14"/>
      <text id="ITEM_2_HEAD" x="244.0" y="-96.0" text-anchor="end" font-weight="700" font-size="34" fill="var(--semantic-uncertain)" data-bg-id="ITEM_2_BG" fill-opacity="1.0" stroke="none" style="font-size: 31px; font-family: 'Segoe UI Variable Display', 'Aptos Display', 'Inter', 'Segoe UI', Helvetica, Arial, sans-serif; font-weight: 700; font-kerning: normal; font-feature-settings: &quot;kern&quot; 1, &quot;liga&quot; 1; letter-spacing:-0.4px;" data-final-font-size="31">
        <tspan x="244.0" dy="28.52px">Prior Discussion</tspan>
      </text>
      <rect id="ITEM_2_HEAD_FRAME" x="-156" y="-96" width="400" height="40" fill="none"/>
      <text id="ITEM_2_BODY" x="274.0" y="-4.0" text-anchor="end" font-size="24" fill="var(--primary-text)" opacity="0.92" data-bg-id="ITEM_2_BG" style="font-size: 23px; font-family: 'Segoe UI Variable Text', 'Aptos', 'Inter', 'Segoe UI', Helvetica, Arial, sans-serif; font-weight: 400; font-kerning: normal; font-feature-settings: &quot;kern&quot; 1, &quot;liga&quot; 1;" data-final-font-size="23">
        <tspan x="274.0" dy="33.42px">Memo referred to a conversation held</tspan>
        <tspan x="274.0" dy="26.45px">on previous days or communications</tspan>
      </text>
      <rect id="ITEM_2_BODY_FRAME" x="-156" y="-4" width="430" height="128" fill="none"/>
      <circle id="ITEM_2_PAD" cx="-224" cy="-24" r="52" fill="var(--icon-pad-bg)" opacity="1" fill-opacity="0.9" stroke-width="2" stroke="var(--semantic-uncertain)" stroke-opacity="0.72" data-badge-layer="pad"/>
      <circle id="ITEM_2_PAD_INNER" cx="-224" cy="-24" r="40.56" fill="var(--semantic-uncertain)" fill-opacity="0.12" stroke="none" data-badge-layer="tint"/>
      <circle cx="-224" cy="-24" r="42" fill="none" stroke="var(--accent-2)" stroke-width="2.5" stroke-dasharray="6 4" display="none" data-suppressed-decoration="redundant-badge-ring"/>
      <g id="ITEM_2_ICON" transform="translate(-266, -66)" data-icon-size="84" stroke-linecap="round" stroke-linejoin="round" data-badge-treatment="clean">
        <g transform="translate(-6.0,-13.5) scale(3.0)">
          <path d="M29.9611 14.1L29.6311 12.63C28.901 9.34 25.9908 7 22.6205 7H9.3795C6.00924 7 3.09902 9.34 2.35897 12.63L2.03894 14.1C1.81892 15.07 2.55898 16 3.55906 16H9.17949C9.93955 16 10.5496 15.39 10.5496 14.63V13.93C10.5496 13.41 10.9696 12.99 11.4897 12.99H20.5004C21.0204 12.99 21.4404 13.41 21.4404 13.93V14.63C21.4404 15.39 22.0505 16 22.8105 16H28.431C29.441 16 30.1811 15.07 29.9611 14.1Z" fill="#CA0B4A"/>
          <path d="M3 14C2.44772 14 2 14.4477 2 15C2 15.5523 2.44772 16 3 16H9C9.55228 16 10 15.5523 10 15C10 14.4477 9.55228 14 9 14H3ZM23 14C22.4477 14 22 14.4477 22 15C22 15.5523 22.4477 16 23 16H29C29.5523 16 30 15.5523 30 15C30 14.4477 29.5523 14 29 14H23Z" fill="#990838"/>
          <path d="M28.12 19.5L24.46 14.62C24.17 14.23 23.71 14 23.22 14H22.31C22.14 14 22 13.86 22 13.69V11.31C22 11.14 21.86 11 21.69 11H20.31C20.14 11 20 11.14 20 11.31V13.69C20 13.86 19.86 14 19.69 14H12.31C12.14 14 12 13.86 12 13.69V11.31C12 11.14 11.86 11 11.69 11H10.31C10.14 11 10 11.14 10 11.31V13.69C10 13.86 9.86 14 9.69 14H8.78C8.29 14 7.83 14.23 7.53 14.63L3.88 19.5C2.66 21.12 2 23.1 2 25.13V28.44C2 29.3 2.7 30 3.56 30H28.44C29.3 30 30 29.3 30 28.44V25.13C30 23.1 29.34 21.12 28.12 19.5Z" fill="#F92F60"/>
          <path d="M28.44 26.9999H3.56C2.7 26.9999 2 26.36 2 25.5V28.4399C2 29.2999 2.7 29.9999 3.56 29.9999H28.44C29.3 29.9999 30 29.2999 30 28.4399V25.5C30 26.36 29.3 26.9999 28.44 26.9999Z" fill="#990838"/>
          <path d="M13.6981 19H12.3215C12.1407 19 12 18.8593 12 18.6884V17.3116C12 17.1407 12.1407 17 12.3115 17H13.688C13.8588 17 13.9995 17.1407 13.9995 17.3116V18.6884C14.0095 18.8593 13.8689 19 13.6981 19ZM16.6981 19H15.3215C15.1407 19 15 18.8593 15 18.6884V17.3116C15 17.1407 15.1407 17 15.3115 17H16.688C16.8588 17 16.9995 17.1407 16.9995 17.3116V18.6884C17.0095 18.8593 16.8689 19 16.6981 19ZM18.3215 19H19.6981C19.8689 19 20.0095 18.8593 19.9995 18.6884V17.3116C19.9995 17.1407 19.8588 17 19.688 17H18.3115C18.1407 17 18 17.1407 18 17.3116V18.6884C18 18.8593 18.1407 19 18.3215 19ZM13.6981 22H12.3215C12.1407 22 12 21.8593 12 21.6884V20.3116C12 20.1407 12.1407 20 12.3115 20H13.688C13.8588 20 13.9995 20.1407 13.9995 20.3116V21.6884C14.0095 21.8593 13.8689 22 13.6981 22ZM15.3215 22H16.6981C16.8689 22 17.0095 21.8593 16.9995 21.6884V20.3116C16.9995 20.1407 16.8588 20 16.688 20H15.3115C15.1407 20 15 20.1407 15 20.3116V21.6884C15 21.8593 15.1407 22 15.3215 22ZM19.6981 22H18.3215C18.1407 22 18 21.8593 18 21.6884V20.3116C18 20.1407 18.1407 20 18.3115 20H19.688C19.8588 20 19.9995 20.1407 19.9995 20.3116V21.6884C20.0095 21.8593 19.8689 22 19.6981 22ZM12.3215 25H13.6981C13.8689 25 14.0095 24.8593 13.9995 24.6884V23.3116C13.9995 23.1407 13.8588 23 13.688 23H12.3115C12.1407 23 12 23.1407 12 23.3116V24.6884C12 24.8593 12.1407 25 12.3215 25ZM16.6981 25H15.3215C15.1407 25 15 24.8593 15 24.6884V23.3116C15 23.1407 15.1407 23 15.3115 23H16.688C16.8588 23 16.9995 23.1407 16.9995 23.3116V24.6884C17.0095 24.8593 16.8689 25 16.6981 25ZM18.3215 25H19.6981C19.8689 25 20.0095 24.8593 19.9995 24.6884V23.3116C19.9995 23.1407 19.8588 23 19.688 23H18.3115C18.1407 23 18 23.1407 18 23.3116V24.6884C18 24.8593 18.1407 25 18.3215 25Z" fill="#E6E6E6"/>
        </g>
      </g>
    </g>
    <g transform="translate(520, 808)">
      <rect id="ITEM_3_BG" x="-310" y="-126" width="620" height="252" rx="32" fill="var(--panel)" fill-opacity="0.95" stroke="var(--accent-3)" stroke-width="3" filter="url(#svg36d1c25c-shadow)"/>
      <rect x="-310" y="-126" width="620" height="252" rx="18" fill="url(#svg36d1c25c-universal-surface-sheen)" opacity="0.84"/>
      <rect x="254" y="-92" width="18" height="184" rx="9" fill="var(--accent-3)" fill-opacity="0.22"/>
      <circle cx="224" cy="-24" r="90" fill="none" stroke="var(--accent-3)" stroke-width="2.5" stroke-opacity="0.14"/>
      <text id="ITEM_3_HEAD" x="-244.0" y="-96.0" text-anchor="start" font-weight="700" font-size="34" fill="var(--semantic-uncertain)" data-bg-id="ITEM_3_BG" fill-opacity="1.0" stroke="none" style="font-size: 31px; font-family: 'Segoe UI Variable Display', 'Aptos Display', 'Inter', 'Segoe UI', Helvetica, Arial, sans-serif; font-weight: 700; font-kerning: normal; font-feature-settings: &quot;kern&quot; 1, &quot;liga&quot; 1; letter-spacing:-0.4px;" data-final-font-size="31">
        <tspan x="-244.0" dy="28.52px">Retrospective Fabrication</tspan>
      </text>
      <rect id="ITEM_3_HEAD_FRAME" x="-244" y="-96" width="400" height="40" fill="none"/>
      <text id="ITEM_3_BODY" x="-244.0" y="-4.0" text-anchor="start" font-size="24" fill="var(--primary-text)" opacity="0.92" data-bg-id="ITEM_3_BG" style="font-size: 23px; font-family: 'Segoe UI Variable Text', 'Aptos', 'Inter', 'Segoe UI', Helvetica, Arial, sans-serif; font-weight: 400; font-kerning: normal; font-feature-settings: &quot;kern&quot; 1, &quot;liga&quot; 1;" data-final-font-size="23">
        <tspan x="-244.0" dy="33.42px">Document created later using known</tspan>
        <tspan x="-244.0" dy="26.45px">historical meeting dates as a framework</tspan>
      </text>
      <rect id="ITEM_3_BODY_FRAME" x="-244" y="-4" width="430" height="128" fill="none"/>
      <circle id="ITEM_3_PAD" cx="224" cy="-24" r="52" fill="var(--icon-pad-bg)" opacity="1" fill-opacity="0.9" stroke-width="2" stroke="var(--semantic-uncertain)" stroke-opacity="0.72" data-badge-layer="pad"/>
      <circle id="ITEM_3_PAD_INNER" cx="224" cy="-24" r="40.56" fill="var(--semantic-uncertain)" fill-opacity="0.12" stroke="none" data-badge-layer="tint"/>
      <circle cx="224" cy="-24" r="42" fill="none" stroke="var(--accent-3)" stroke-width="2.5" stroke-dasharray="6 4" display="none" data-suppressed-decoration="redundant-badge-ring"/>
      <g id="ITEM_3_ICON" transform="translate(182, -66)" data-icon-size="84" stroke-linecap="round" stroke-linejoin="round" data-badge-treatment="clean">
        <g transform="translate(-7.777777777777778,-10.111111111111107) scale(4.148148148148148)" vector-effect="non-scaling-stroke" fill="#f1f5f9" fill-opacity="1.0" stroke="none">
          <path fill="#f1f5f9" d="M20 13h-4c0 1.1-.9 2-2 2h-4c-1.1 0-2-.9-2-2H4l-2 5v2c0 1.1.9 2 2 2h16c1.1 0 2-.9 2-2v-2M6 20c-.89 0-1.34-1.08-.71-1.71S7 18.11 7 19c0 .55-.45 1-1 1m4 0c-.89 0-1.34-1.08-.71-1.71S11 18.11 11 19c0 .55-.45 1-1 1m4 0c-.89 0-1.34-1.08-.71-1.71S15 18.11 15 19c0 .55-.45 1-1 1m4 0c-.89 0-1.34-1.08-.71-1.71S19 18.11 19 19c0 .55-.45 1-1 1m0-10V3H6v7H3v2h18v-2M8 5h8v1H8m0 1h6v1H8" vector-effect="non-scaling-stroke" stroke="none"/>
        </g>
      </g>
    </g>
    <g transform="translate(1400, 808)">
      <rect id="ITEM_4_BG" x="-310" y="-126" width="620" height="252" rx="32" fill="var(--panel)" fill-opacity="0.95" stroke="var(--accent-4)" stroke-width="3" filter="url(#svg36d1c25c-shadow)"/>
      <rect x="-310" y="-126" width="620" height="252" rx="18" fill="url(#svg36d1c25c-universal-surface-sheen)" opacity="0.84"/>
      <rect x="-272" y="-92" width="18" height="184" rx="9" fill="var(--accent-4)" fill-opacity="0.22"/>
      <circle cx="-224" cy="-24" r="90" fill="none" stroke="var(--accent-4)" stroke-width="2.5" stroke-opacity="0.14"/>
      <text id="ITEM_4_HEAD" x="244.0" y="-96.0" text-anchor="end" font-weight="700" font-size="34" fill="var(--semantic-uncertain)" data-bg-id="ITEM_4_BG" fill-opacity="1.0" stroke="none" style="font-size: 31px; font-family: 'Segoe UI Variable Display', 'Aptos Display', 'Inter', 'Segoe UI', Helvetica, Arial, sans-serif; font-weight: 700; font-kerning: normal; font-feature-settings: &quot;kern&quot; 1, &quot;liga&quot; 1; letter-spacing:-0.4px;" data-final-font-size="31">
        <tspan x="244.0" dy="28.52px">Archival Anomaly</tspan>
      </text>
      <rect id="ITEM_4_HEAD_FRAME" x="-156" y="-96" width="400" height="40" fill="none"/>
      <text id="ITEM_4_BODY" x="274.0" y="-4.0" text-anchor="end" font-size="24" fill="var(--primary-text)" opacity="0.92" data-bg-id="ITEM_4_BG" style="font-size: 23px; font-family: 'Segoe UI Variable Text', 'Aptos', 'Inter', 'Segoe UI', Helvetica, Arial, sans-serif; font-weight: 400; font-kerning: normal; font-feature-settings: &quot;kern&quot; 1, &quot;liga&quot; 1;" data-final-font-size="23">
        <tspan x="274.0" dy="33.42px">Document exists as a standalone claim</tspan>
        <tspan x="274.0" dy="26.45px">without collateral paper trails</tspan>
      </text>
      <rect id="ITEM_4_BODY_FRAME" x="-156" y="-4" width="430" height="128" fill="none"/>
      <circle id="ITEM_4_PAD" cx="-224" cy="-24" r="52" fill="var(--icon-pad-bg)" opacity="1" fill-opacity="0.9" stroke-width="2" stroke="var(--semantic-uncertain)" stroke-opacity="0.72" data-badge-layer="pad"/>
      <circle id="ITEM_4_PAD_INNER" cx="-224" cy="-24" r="40.56" fill="var(--semantic-uncertain)" fill-opacity="0.12" stroke="none" data-badge-layer="tint"/>
      <circle cx="-224" cy="-24" r="42" fill="none" stroke="var(--accent-4)" stroke-width="2.5" stroke-dasharray="6 4" display="none" data-suppressed-decoration="redundant-badge-ring"/>
      <g id="ITEM_4_ICON" transform="translate(-266, -66)" data-icon-size="84" stroke-linecap="round" stroke-linejoin="round" data-badge-treatment="clean">
        <g transform="translate(0.0,0.0) scale(6.0)" vector-effect="non-scaling-stroke" stroke-width="2.72" stroke-linecap="round" stroke-linejoin="round" stroke-opacity="1.0">
          <path id="Vector" fill="none" d="M6 11.5a5.5 5.5 0 1 0 0 -11 5.5 5.5 0 0 0 0 11Z" vector-effect="non-scaling-stroke" stroke="#f1f5f9"/>
          <path id="Vector_2" stroke="#f1f5f9" d="M6 11.5a5.5 5.5 0 1 0 0 -11 5.5 5.5 0 0 0 0 11Z" vector-effect="non-scaling-stroke" fill="none"/>
          <path id="Vector_3" stroke="#f1f5f9" d="M13.5 13.5 10 10" vector-effect="non-scaling-stroke" fill="none"/>
        </g>
      </g>
    </g>
  </g>
  <text id="SOURCE_NOTE" x="134.0" y="1058.0" fill="var(--muted-text)" opacity="1" style="font-family: var(--font-family); font-size: 20px;">Source: [Comments on Majestic 12 Material] | U.S. GAO</text>
  <text id="EDITORIAL_NOTE" x="1786.0" y="1058.0" fill="var(--semantic-uncertain)" opacity="1" style="font-family: var(--font-family); font-size: 20px;" text-anchor="end">Interpretations remain disputed; wording reflects source uncertainty.</text>
</svg>
